<?xml version="1.0" encoding="utf-8"?>
<!-- Generator: Adobe Illustrator 25.2.3, SVG Export Plug-In . SVG Version: 6.00 Build 0)  -->
<svg version="1.1" id="Layer_1" xmlns="http://www.w3.org/2000/svg" xmlns:xlink="http://www.w3.org/1999/xlink" x="0px" y="0px"
	 viewBox="0 0 595.3 841.9" style="enable-background:new 0 0 595.3 841.9;" xml:space="preserve">
<style type="text/css">
	.st0{fill:#1E1E1C;}
	.st1{fill:#FFFFFF;}
</style>
<g transform="matrix(1,0,0,1,0,-58.1734)">
	<g transform="matrix(10.8853,0,0,10.8853,150.356,188.451)">
		<path class="st0" d="M10.5,40.6c0.2,0.9,0.9,2.2,0.9,2.5c0.1-0.1,0.1-0.2,0.2-0.3c0.2,0.4,0.3,0.7,0.3,1.1
			c0.1-0.1,0.1-0.2,0.2-0.3c0,0,0,0,0,0c0,0.1,0.1,0.2,0.1,0.3c0,0,0,0,0,0c0.1,0.3,0.1,0.6,0.3,0.8c0-0.1,0.2-0.1,0.2-0.2
			c0.1,0.3,0.4,0.4,0.5,0.7c0,0.1,0,0.3,0,0.4c0.1-0.1,0.2-0.2,0.3-0.3c0.2,0.4,0.2,0.7,0.3,1.1c0.1-0.1,0.1-0.1,0.2-0.1
			c0.2,0.4,0.4,0.7,0.4,1.1c0.2,0,0.4-0.1,0.6-0.2c0,0,0,0,0,0c0.1,0.3,0.4,0.5,0.4,0.8c0.6-0.6,0.7,0.7,0.8,1
			c0-0.1,0.1-0.2,0.2-0.3c0.2,0.3,0.4,0.6,0.6,0.9c0.1-0.1,0.2-0.2,0.2-0.3c0.1,0.1,0.2,0.2,0.3,0.3c0.1,0.3,0.2,0.5,0.3,0.8
			c0.1-0.1,0.2-0.1,0.3-0.1c0.4,0.5,0.1,0.7,0,1.2c0.1,0,0.3,0,0.5,0c0.1,0.2,0,0.5,0,0.7c0.1,0,0.3-0.1,0.4-0.2
			c0,0.2,0.1,0.4,0,0.7c0.1-0.1,0.2-0.1,0.3-0.1c0.2,0.4,0.2,0.8,0.3,1.2c0.1-0.1,0.1-0.2,0.1-0.3c0.2,0.3,0.3,0.6,0.3,0.9
			c0-0.1,0.2-0.1,0.2-0.2c0.2,0.3,0.2,0.3,0.2,0.7c0.2,0,0.4-0.3,0.5-0.4c0.2,0.2,0.2,0.5,0.4,0.7c0.1-0.2,0.4-0.6,0.4-0.8
			c0.1,0.2,0.1,0.4,0.3,0.7c0.2-0.2,0.3,0.1,0.5-0.1l0.7,0c0,0.1,0.7-0.2,0.7-0.1c0.5-0.6,0.9-0.2,1.3-0.8c0.1,0.1,0.3,0.1,0.4,0.3
			c0.1-0.2,0.3-0.3,0.4-0.5c0.1,0,0.2,0,0.3,0c0-0.1,0.2-0.2,0.2-0.3c0.1,0.1,0.2,0.1,0.3,0.2c0.4-0.5,1.1-0.6,1.6-0.9
			c0.4-0.2,0.5-0.5,0.8-0.8c0,0,0,0.1,0,0.2c0.3-0.2,0.4-0.6,0.7-0.9c0,0.1,0,0.1,0.1,0.1c0.4-0.4,0.9-0.7,1-1.3
			c0,0,0.1,0.1,0.2,0.1c0.5-0.3,0.8-1.1,1-1.6c0,0,0,0,0.1,0c0.2-0.4,0.3-1,0.3-1.5c0.1,0.1,0.2,0.1,0.3,0.2c0-0.3,0.1-0.6,0.1-0.9
			c0.4,0.3,0.4-0.5,0.6-0.8c0.1,0,0.1,0,0.2,0.1c0.3-0.3,0.3-0.5,0.3-1c0,0,0,0,0,0c0.1,0,0.2,0,0.4,0c-0.1-0.4-0.1-1,0-1.4
			c0,0,0,0,0,0.1c0.4-0.1,0-1.4,0.6-1.2c0.1-0.4,0-0.8,0.3-1.1c0,0.1,0.1,0.1,0.1,0.2c0.2-0.3,0.2-1.2,0.1-1.5
			c0.1,0.1,0.3,0,0.4,0.1c0-0.4,0.1-0.8,0.1-1.2c0.1,0.1,0.2,0.3,0.3,0.4c-0.1-0.3-0.2-0.8-0.1-1.1c0.1,0,0.1,0,0.2,0.1
			c0.1-0.3,0-0.6-0.1-0.8c0.8,0.4,0.4-1.4,0.4-1.8c0.1,0.1,0.2,0.1,0.3,0.2c0-0.4-0.1-0.7-0.2-1.1c0.1,0.1,0.3,0.2,0.5,0.3
			c-0.1-0.5-0.3-1.1-0.2-1.6c0.1,0.1,0.2,0.1,0.2,0.1c0-0.4-0.1-0.7-0.2-1.1c0.1,0,0.1,0.1,0.2,0.1c0.2-0.4-0.3-1-0.4-1.3
			c0.1,0.1,0.2,0.1,0.3,0.2c-0.1-0.3-0.2-0.7-0.3-1c0.2,0.1,0.2-0.1,0.4,0c-0.3-0.6-0.3-1.4-0.9-1.8c-0.5-0.3-0.5-0.7-0.7-1.1
			c-0.2-0.3-0.6-0.8-0.8-1.1c-0.2-0.3-0.1-0.4-0.3-0.7c-0.2-0.2-0.3-0.6-0.5-0.8c-0.2-0.3-0.4-0.4-0.6-0.7c-0.2-0.2-0.3-0.5-0.4-0.7
			c-0.2-0.2-0.4-0.4-0.6-0.7c-0.1-0.2-0.1-0.3-0.2-0.4c-0.3-0.4-0.7-0.8-0.7-0.8c0,0-0.5-0.4-1.2-1.3c-0.1-0.2-0.7-0.9-0.7-0.9
			c0-0.2-0.4-0.2-0.5-0.7l-0.2-0.3l-0.2-0.4c0.1-0.2-0.3-0.3-0.1-0.4c-0.3-0.1-0.2-0.4-0.4-0.6c0.1-0.2-0.2-0.2-0.1-0.5
			c-0.4-0.3-0.2-1.1-0.6-1.3c0-1.4-0.4-2.5-0.4-3.8c-0.4-0.8-0.4-1.9-0.5-2.8c-0.5-0.3-0.3-1-0.5-1.5c-0.3-0.3-0.1-0.7-0.4-1
			c0-0.7-0.2-1.4-0.3-2.2c-0.5-0.5-0.1-1.4-0.4-2c-0.1-0.1,0-0.3-0.2-0.4c-0.1-0.5-0.2-1-0.6-1.4c0-0.3-0.2-0.5-0.2-0.7
			c-0.4-0.1-0.3-0.6-0.5-0.9c-0.1-0.1-0.3-0.1-0.3-0.3c-0.3,0.1-0.2-0.4-0.5-0.3c-0.5,0.1-0.5-0.5-1-0.3c0,0.3-0.4,0.2-0.6,0.3
			c0,0.3-0.3,0.1-0.4,0.3c0,0.6-0.8,0.5-0.8,1.1c-0.5,0-0.2,0.7-0.6,0.9c-0.2,0.1,0,0.2-0.2,0.3c-0.3,0.4-0.5,0.8-0.7,1.3
			c-0.1,0.4-0.1,1-0.5,1.3c-0.1,0.3-0.2,0.6-0.4,0.9l-0.3,1.5c-0.1,0.3,0.1,0.7-0.4,0.8c-0.1,0.9-0.1,1.8-0.3,2.7
			c-0.1,0.2,0,0.7-0.4,0.7L16,11c-0.4,0.1-1,0-0.9,0.6c-0.4,0.1-0.8,0.1-1.2,0.1c-0.3-0.2-0.5-0.7-0.5-1.1c-0.2-0.1-0.1-0.4-0.2-0.6
			C12.9,10,13,9.7,12.8,9.6c-0.1-0.3-0.3-0.5-0.4-0.8c-0.5,0.1-0.2-0.6-0.6-0.8c-0.5-0.1-0.2-0.9-0.7-1c-0.1-0.4-0.3-0.8-0.5-1.1
			c0.1-0.3-0.2-0.1-0.2-0.3c0.1-0.1-0.1-0.2-0.2-0.3c0.1-0.2-0.3-0.2-0.1-0.4c-0.3-0.4-0.2-1-0.5-1.4C9.5,3.1,9.2,2.7,9.1,2.3
			C8.9,2.2,9,1.9,8.7,1.9C8.9,1.4,8.6,1,8.5,0.7C7.9,0.2,8-0.6,7.4-1.1c-0.1,0-0.3,0-0.4-0.1c0-0.4-0.5-0.2-0.7-0.2
			c0,0.1,0,0.1,0,0.1c-0.6,0.1,0.1,1-0.6,1l-0.1,2c-0.1,0.5-0.3,1-0.4,1.5C5,3.6,5.3,4.1,5,4.3C5,4.8,4.8,5.1,4.8,5.5l0,3.3L5,10.9
			c0,0,0.4,1.3,0.4,1.9c0.2,0.3-0.2,0.7,0,1.1c-0.1,0.3-0.5,0.1-0.5,0.1c-0.1,0.2-0.5,0.2-0.6,0.3c0,0.1,0.1,0.2,0.1,0.3
			c-0.2,0.2-0.1,0.6-0.1,0.6c-0.1,0.1,0,0.3-0.1,0.4c0,0.3-0.3,0.5-0.3,0.8c-0.2,0.1-0.1,0.3-0.3,0.4c0,0.3-0.2,0.3-0.4,0.5
			c-0.4,0.5-0.4,0.6-0.8,1.1c-0.2,0.2-0.1,0.3-0.4,0.4c0,0.3-0.1,0.3-0.2,0.7c-0.3,0.4-0.2,0.6-0.6,0.8c-0.2,0.3-0.5,0.4-0.5,0.8
			c-0.2,0.7,0,1,0,1.6c-0.1,0.1-0.1,0.1-0.1,0.3c-0.3,0.3-0.1,0.7-0.2,1.1C0,24.2,0.1,24.4,0,24.6l-0.5,0.3
			c-0.2,0.1-0.4,0.2-0.5,0.4c-0.3,0-0.3,0.2-0.5,0.3c-0.3,0.1-0.4,0-0.6,0.4c-0.3,0.4-0.7,0.4-0.6,0.4c-0.1,0.2-0.8,0.4-1,0.5l0,0
			c-0.1,0.2-0.7,0.3-0.7,0.3c-0.2,0.4-0.7,0.3-0.8,0.7c-0.5,0.2-0.6,0.4-1,0.6c-0.4,0.2-0.4,0.5-0.7,0.6c-0.4,0.3-0.9,0.5-0.9,0.5
			c-0.1,0.1-0.3,0.3-0.4,0.4c-0.4,0.1-0.4,0.3-0.8,0.4c0,0-0.2,0.2-0.4,0.3c0,0-0.1,0.3-0.4,0.5l-0.4,0.6c0,0.5,0.3,0.8,0.3,1.3
			c0.1,0.2,0.3,0.4,0.6,0.4l0.1,0.8c0.3,0.3,0.2,0.8,0.6,0.9c0.1,0.3,0.6,1,0.7,1.1c-0.1,0.4,0.4,0.7,0.2,1.1
			c0.1,0.1,0.2,0.1,0.3,0.1c-0.1,0.3,0.3,0.2,0.4,0.4c0,0,0,0,0,0.1h0.1c0.4,0,0.4,0.4,0.6,0.3l0.2,0.2c0.3,0,0.5,0.4,0.6,0.6
			c0,0,0.4,0.2,0.3,0.3c0,0,0.4,0.2,0.4,0.3c0.1,0.2,1.6,0.3,2,0.7c0.5,0.1,1.2,0.2,1.9,0.2c1,0.1,1.4-0.1,2.4-0.1
			c0.4,0,0.7-0.1,1.5,0.1c0.6,0.1,0.7,0,2.2,0.2C6.8,40.6,10.3,39.4,10.5,40.6z"/>
	</g>
	<g transform="matrix(10.8853,0,0,10.8853,150.356,188.451)">
		<path class="st1" d="M32.9,33.5c0,0,0.4-0.1,0.4-0.1c-0.2-0.2-0.8-0.1-1.1-0.2c0-0.1,0.3-0.2,0.3-0.3c-0.2-0.1-0.7-0.2-1-0.3
			c0.6-0.3,0.8-0.1,1.1-0.2c-0.2-0.2-0.4-0.4-0.6-0.6c0.3,0,0.5,0,0.8,0.1c0-0.4-0.2-0.7-0.6-0.6c0.1-0.5,0.6-0.4,0.7-0.4
			c-0.2-0.2-0.4-0.4-0.6-0.5c0.2-0.3,0.7,0,0.9,0.1c-0.3-0.5-1.1-0.7-1.6-0.8c0.1-0.3,0.7-0.2,0.9-0.3c-0.2-0.2-0.5-0.2-0.7-0.4
			c0.2,0,0.3-0.1,0.5,0c-0.2-0.3-0.4-0.2-0.7-0.2c0.2-0.4,0.6-0.3,1-0.2c-0.3-0.4-0.9-0.8-1.7-0.5c0.4-0.5,0.8-0.5,1.4-0.5
			c0.4,0,1.3,0.4,1.6,0.8c0.2,0.2,0.4,0.9,0.6,1.2c-0.3,0-0.6-0.2-0.8-0.3c0.1,0.2,0.5,1.3-0.1,1c0.1,0.1,0.8,0.8,0.6,1.4
			c0,0-0.5,0.3-0.6,0.3c0,0.8,0.4,0.3,0.7,1l0.2,0.2c0.1,0.1,0.2,0.2,0.3,0.3c0-0.3-0.3-0.6,0.1-1c-0.1-0.2-0.3-0.8-0.3-1
			c0.2-0.1,0.5,0.1,0.7,0.1c-0.1-0.3-0.4-1.2-0.5-1.4c0.1,0,0.1,0.1,0.2,0.1c0-0.3-0.2-0.5-0.3-0.8c0.1,0,0.2-0.1,0.2-0.1
			c-0.1-0.2-0.2-0.4-0.4-0.6c0.1,0,0.2-0.1,0.3-0.1c-0.1-0.1-0.5-0.4-0.6-0.5c0.1,0,0.1-0.3,0.2-0.3c-0.2-0.5-0.7-0.5-1.1-0.7
			c0.1,0,0.2,0,0.3,0c-0.1-0.4-0.5-0.6-0.8-0.8c0.7,0.1-0.2-0.7-0.3-0.8c0.6-0.4-0.6-1-0.8-1.3c0,0,0.1-0.1,0.1,0
			c-0.1-0.4-0.4-0.3-0.6-0.5c-0.2-0.2-0.1-0.3-0.3-0.5c0,0,0.1-0.1,0.1-0.2c-0.1-0.2-0.4-0.3-0.5-0.5c0.1,0,0.1-0.1,0.2-0.1
			c-0.1-0.2-0.4-0.3-0.6-0.4c0,0,0.1-0.1,0.1-0.1c-0.3-0.3-0.5-0.4-0.9-0.5c0-0.1,0-0.2,0-0.2c-0.3-0.1-0.7-0.1-1-0.2
			c0.4-0.4,0.2-1.2-0.1-0.8c-0.2,0.3-0.5,0.7-0.7,1.1c-0.4-0.1-0.6,0.4-1,0.5c0-0.1,0-0.1,0-0.2c-0.3,0-0.4,0.3-0.6,0.5
			c0-0.1-0.1-0.2-0.1-0.3c-0.1,0.2-0.4,0.5-0.7,0.9c-0.4,0-0.7,0.4-1,0.8c0,0,0.1,0.1,0.1,0.1c-0.1,0.2-0.2,0.2-0.2,0.4
			c-0.2,0.1-0.5,0.1-0.8,0.2c0.2,0.2,0.3,0.4,0.5,0.6c-0.4,0-0.9,0.3-0.7,0.7c0.2,0.4,0.8,0.3,0.9,0.7c-0.2,0.1-0.4,0.1-0.5,0
			c0.3,0.4,0.6,0.7,0.9,1.1c-0.7,0-1-0.5-1.5-0.6c0.1,0.3,0.3,0.5,0.5,0.8c-0.2,0-0.4-0.1-0.6-0.1c-0.3,0-0.5,0.2-0.7,0.1
			c0.1,0.2,0.3,0.4,0.5,0.5c-0.4-0.1-0.9-0.1-1.3-0.2c0.1,0.1,0.1,0.1,0.2,0.2c-0.2,0.3-0.9,0.1-1.2,0.1c0.2,0.2,0.5,0.4,0.7,0.6
			c-0.7-0.3-1.4-0.4-2-1c0,0-0.1,0.1-0.1,0.1c-0.6-0.3-0.9,0-1.4-0.2c0-0.2-0.1-0.3-0.2-0.5c0,0-0.1,0-0.1,0c0,0,0,0-0.1-0.1
			c0,0,0,0,0,0c0-0.4-0.1-1.1-0.7-1c0,0.1,0.1,0.3,0.2,0.4c-0.1,0-0.2,0.1-0.3,0.1c-0.1-0.1-0.3-0.1-0.4-0.1
			c-0.1-0.1-0.1-0.1-0.2-0.2c0,0.1-0.2,0.1-0.2,0.1c0,0,0,0-0.1,0c-0.1-0.1-0.1-0.2-0.1-0.4c-0.1,0.1-0.2,0.1-0.3,0.1
			c-0.1-0.2-0.1-0.5-0.4-0.5c0,0.2-0.1,0.4-0.3,0.4c0,0,0,0,0,0c0-0.3-0.6-0.4-0.7-0.7c-0.1,0-0.4-0.3-0.6-0.6
			c-0.2-0.2,0-0.6-0.4-0.7c-0.1,0.2-0.4,0.2-0.6,0.2c-0.2,0.1-0.4-0.3-0.4-0.3c-0.2,0.2-0.5,0.2-0.7,0.3c-0.2,0.1-0.3,0.3-0.6,0.4
			c-0.3,0.1-0.6,0-0.9,0.1c-0.1,0-0.3,0.1-0.4,0.1c-0.2,0-0.3-0.1-0.5-0.1c-0.2,0-0.5,0.1-0.7,0c-0.3-0.1-0.5-0.6-0.9-0.6
			c0.1-0.3,0.1-0.6,0.4-0.7c0.2-0.1,0.3-0.2,0.5-0.4c0.1-0.1,0.4-0.3,0.5-0.5c0.1-0.3-0.4-0.6-0.6-0.8c-0.2-0.3-0.2-0.6-0.3-1
			c0.1,0.1,0.2,0.2,0.4,0.2c0.1-0.3,0.1-0.7,0.1-1c0.2,0.1,0.2,0.5,0.5,0.6c0.3,0.1,0.3-0.2,0.2-0.4c0.1,0,0.2,0,0.3,0
			c0-0.2,0-0.4,0.2-0.5c0.1,0.1,0.2,0.2,0.3,0.3c0.1-0.1,0.2-0.2,0.3-0.2c0.1,0.1,0.1,0.1,0.1,0.1c0.1,0,0.2-0.1,0.2,0
			c0.1,0.1,0,0.2,0,0.3c0,0.2,0,0.2,0.1,0.4c0,0,0,0.2,0,0.2c0.1,0.2,0.1,0.1,0,0.2C10,21,9.8,21.1,9.9,21.3
			c0.1,0.2,0.6,0.2,0.9,0.3c0.3,0,0.4,0,0.6,0.2c0.2,0.3,0.4,0.5,0.7,0.7c0.1,0,0.2,0.1,0.3,0.2c0.1,0.1,0.2,0.1,0.3,0.1
			c0,0,0.1,0.2,0.2,0.2c0.2,0.1,0.5,0,0.8,0.2c0,0,0.2,0.2,0.3,0.3c0-0.1,0.3,0,0.3,0.1c0.3,0,0.5,0.3,0.8-0.1
			c0,0.1,0.4,0.2,0.5,0.2c0,0,0,0,0-0.1c0.2,0,0.4,0,0.7,0c0,0,0-0.1,0-0.2c0.1,0,0.2,0,0.3,0.1c0-0.1-0.1-0.2-0.1-0.4
			c0.2,0.1,0.4-0.5,0.1-0.8c0.2,0.1,0.3,0.3,0.6,0.3c0.3,0.3,0.6,0.6,0.3,1c0,0.1,0.1,0.3,0.1,0.4c-0.1,0-0.2,0-0.3,0
			c0.2,0.1,0.5,0.4,0.5,0.6c-0.1,0-0.3-0.1-0.4,0c0.1,0.3,0,0.3,0.2,0.5c0.1,0.1,0.3,0,0.4,0.1c0.3,0.1,0.5,0.4,0.7,0.5
			c0.2,0.1,0.2,0.1,0.4,0.1c0.1,0,0.1-0.1,0.2-0.1c0.1,0,0.3,0.3,0.4,0.4c0.2,0.1,0.5,0.3,0.8,0.2c-0.2-0.2-0.2-0.4-0.4-0.6
			c0.2,0,0.5,0.1,0.7,0.1c-0.1-0.1-0.3-0.2-0.4-0.3c0.2,0.1,0.8,0.3,0.9,0.1c0.1-0.1-0.4-0.3-0.5-0.4c0.3,0,0.6,0.2,0.8,0.2
			c0-0.1,0-0.2-0.1-0.2c0,0,0-0.1,0,0c0.2,0.1,0.4,0.3,0.6,0.2c-0.5-0.5-1.1-0.7-1.5-1.4c0.2,0.2,0.7,0.2,1,0.4
			c0.4,0.2,0.6,0.4,1,0.5c-0.1-0.2-0.3-0.4-0.5-0.6c0.2,0,0.5,0.1,0.6,0.1c-0.3-0.3-0.6-0.7-0.8-0.9c-0.1-0.1-0.8-0.2-0.8-0.5
			c-0.2-0.1-0.5-0.3-0.3-0.6c-0.2-0.1-0.4-0.2-0.6-0.4c0.1-0.3-0.5-0.5-0.6-0.6c0.1,0,0.1-0.1,0.2-0.1c-0.2-0.2-0.4-0.4-0.4-0.6
			c0-0.1,0.1-0.1,0-0.2c-0.1-0.1-0.3-0.3-0.2-0.3c0,0,0.2,0,0.2,0c-0.1-0.1-0.4-0.3-0.6-0.4c-0.1,0-0.2,0-0.3,0
			c0,0.5-0.1,0.3-0.5,0.3c0,0-1-0.1-1-0.1c-0.1,0,0-0.7,0.1-0.8c-0.3-0.1-0.5-0.3-0.7-0.5c0.1-0.2,0.2-0.4,0.1-0.5
			c0,0,0.1-0.1,0.1-0.1c-0.1,0,0.3-0.2,0.2-0.3c0,0-0.4,0-0.4,0c-0.1,0-0.1-0.1-0.1-0.1c0.1,0,0.4-0.4,0.5-0.4c0,0-0.4,0.2-0.4,0.1
			c0.1,0-0.6,0-0.5-0.1c-0.2-0.1,0.7-0.7,0.7-1c-0.1,0-0.7,0.5-0.8,0.5c0,0-0.2-0.5-0.1-0.5c-0.3-0.2-0.5,0.3-0.8,0.1
			c0,0,0.5-0.5,0.6-0.5c-0.6-0.1-1.6,0.7-1.9,1.1c0,0-0.1,0.1-0.1,0.1c-0.1,0.1-0.1,0.1-0.2,0.2c-0.2,0.1-0.4,0.2-0.6,0.2
			c0.2-0.2,0.3-0.4,0.6-0.5c-0.4-0.2-0.6,0.2-1,0.2c0.1-0.1,0.4-0.7,0.5-0.8c-0.4,0.2-0.7,0.6-1.1,0.5c0.1-0.1,0.5-0.5,0.6-0.6
			c0,0-0.7,0.2-0.7,0.2c0.1-0.1,1-0.9,1.1-1c-0.2,0-0.4,0.1-0.6,0.3c0,0-0.8,0.4-0.8,0.4c0,0,0.1-0.3,0.1-0.3
			c0.5-0.2,0.4-0.5,0.7-0.8c0.1-0.1,0.5-0.3,0.6-0.4c0.1-0.1,0.5-0.7,0.4-0.8c-0.1,0.1-0.7,0.4-0.8,0.5c-0.2,0.2-0.5,0.1-0.7,0.2
			c-0.1,0.1-0.5,0.4-0.5,0.5c-0.1,0.1-0.3,0.3-0.4,0.4c-0.2,0.1-0.6,0.5-0.7,0.5c0,0,0-0.1,0-0.1c0,0.2-0.1,0.3-0.2,0.5
			c-0.1,0.1-0.2,0.2-0.3,0.3c-0.1,0.1,0,0.2-0.1,0.4c-0.1,0.2-0.4,0.3-0.6,0.5c0-0.1,0-0.3-0.1-0.4c-0.2,0.2-0.4,0.3-0.6,0.6
			c0-0.1-0.1-0.2-0.1-0.3c-0.1,0.2-0.4,0.3-0.6,0.5c0,0-0.1,0-0.1-0.1c-0.2,0.2-0.3,0.5-0.4,0.8c0-0.1-0.1-0.1-0.1-0.1
			c-0.3,0.6-0.9,1-1.2,1.5c-0.3,0.4-0.6,1-0.9,1.4c-0.5,0.5-0.9,0.9-1.3,1.5C3.1,23.3,2.7,24,2,24.1c0.2-0.3,0.4-0.6,0.6-0.9
			c0.1-0.2,0.2-0.5,0.3-0.7c0-0.1,0.2-0.4,0.2-0.4c0.1-0.1,0.4-0.2,0.6-0.4c0.2-0.3,0.1-0.5,0.4-0.7c0.3-0.2,0.6-0.3,0.7-0.7
			C5,20,5,19.6,5.2,19.4c0.3-0.3,0.6-0.3,0.8-0.6c0.2-0.2,0.3-0.5,0.3-0.8c-0.4,0.2-0.9,0.9-0.9,0.8C5.3,18.9,5.2,19,5.1,19
			C5,18.9,5,18.9,5,18.8c0.1-0.3,0.3-0.8,0-1c0.2-0.2,0.4-0.4,0.6-0.1c0.1-0.2-0.1-0.6-0.1-0.8C5.5,17,5.6,17,5.6,17.1
			c0-0.2,0.2-0.3,0.2-0.5c0-0.1-0.1-0.3-0.1-0.4c0-0.4,0.1-0.8,0.1-1.1c-0.1,0.1-0.2,0.2-0.3,0.2c-0.1-0.1-0.1-0.3-0.1-0.5
			c-0.2,0.3-0.2,0.7-0.5,1.1c-0.2,0.3-0.5,0.5-0.7,0.8C4.1,17,4,17.2,3.8,17.4c-0.1,0.2-0.4,0.4-0.5,0.6c-0.2,0.3-0.2,0.3-0.2,0.5
			c0,0.4-0.5,1.2-0.2,1.5c0.1-0.1,0.3-0.2,0.4-0.3c0,0.1,0.1,0.2,0.1,0.3C3.7,20,3.9,20,3.9,20.2c0.1,0.3-0.4,0.4-0.6,0.5
			c0.1,0.2-0.3,0.7-0.4,0.9c0,0,0,0.1,0,0.2c-0.1,0.2-0.4,0.3-0.6,0.5c-0.1,0.1-0.2,0.2-0.3,0.3C2,22.7,2,22.8,1.9,23
			c-0.2,0.2-0.3,0.3-0.5,0.4c-0.2,0.2-0.2,0.5-0.3,0.8c-0.2,0.3-0.6,0.4-0.6,0.8c-0.3,0-0.4,0.3-0.7,0.4c-0.2,0.1-0.3,0.1-0.5,0.2
			c-0.4,0.3-0.7,0.5-1.2,0.7c-0.4,0.2-0.7,0.5-1.1,0.7c-0.4,0.2-0.6,0.5-1,0.7l-0.1,0C-4,27.8-4.1,27.9-4.2,28
			c0.4,0.1,0.8-0.2,1.1-0.4c0.4-0.2,0.7-0.4,1.1-0.6c0.5-0.3,1.2-0.3,1.6-0.5c0.2-0.1,0.3-0.3,0.5-0.4C0.5,26,0.8,26,1.1,26
			c-0.2-0.5,1.3-0.9,1.5-1.2c0.1-0.1,0.1-0.2,0.2-0.3c0.1-0.1,0.4-0.1,0.5-0.2c0.2-0.1,0.3-0.3,0.1-0.5c0.2-0.2,0.8-0.4,1-0.2
			c0.1-0.1,0.3,0,0.2,0.1c0.1,0.2,1.1,1.3,1.1,1.5c-0.1,0-0.1,0.1,0,0.1c0,0.1,0,0.2,0,0.3c-0.1,0-0.2,0.1-0.2,0.1
			c0,0.1,0.1,0.1,0.1,0.2c0,0,0,0,0,0c0,0.1,0.1,0.1,0.1,0.2c0,0.1,0,0.1,0,0.2c-0.1,0.1-0.3,0-0.4,0c0.1,0.2,0.8,0.9,0.3,1
			c0.3,0.2,0.2,0.3,0.2,0.6c0,0,0,0.1,0.1,0.1c0,0.1,0,0.2,0,0.3c0,0.3,0,0.3,0.1,0.5C6,29,6.1,29,6.2,29.1c0,0.1,0,0.1,0,0.1
			c-0.1,0-0.3-0.1-0.4-0.1c-0.1,0.4-0.4,0.6-0.4,1c-0.3,0.1-0.2,0.4,0,0.7c0.4-0.1,1.2-0.6,1.3,0.1c0.4-0.1,0.7,0.5,1,0.6
			c0.2,0.1,0.4,0.1,0.7,0.2c0.2,0.1,0.4,0.2,0.5,0.4c0,0,0,0,0,0c0,0,0,0.1,0,0.1c0.2,0.3,0.3,0.2,0.5,0.3c0.3,0.1,0.5,0.3,0.9,0.3
			c0.1,0,0.3-0.1,0.4-0.1c0.2,0,0.1,0,0.3,0c0.3,0,0.6,0.1,1,0.1c0.1,0,0.2-0.1,0.3-0.1c0.2,0,0.6,0.2,0.7,0c0.2,0,0.4,0,0.6,0
			c0-0.1,0.2,0,0.4,0c0.1,0,0.2,0.1,0.4,0.1c0-0.1,0-0.1,0-0.2c0.2,0.2,0.6,0.4,0.8,0.1c0.5,0.1,1,0.3,1.2,0.8c0.1,0.3,0,0.7,0.3,1
			c0.1,0.1,0.4,0.1,0.5,0.2c0.2,0.2,0.2,0.4,0.3,0.7c0.1,0.4,0.1,0.8,0.4,1.1c-0.1,0-0.2,0-0.3,0c-0.1,0.2-0.2,0.2-0.1,0.4
			c-0.2,0-0.4-0.1-0.5-0.2c-0.1,0.2-0.2,0.3-0.2,0.5c-0.3-0.1-0.8-0.3-1-0.5c-0.1,0.3-0.3,0.4-0.5,0.1c-0.2,0.1-0.6,0-0.7,0.2
			c-0.2,0.3,0.3,0.8,0.6,0.9c-0.6,0-0.9,0.2-1,0.2c-0.1,0.2,0.8,0,1,0.2c-0.4,0.3,0,0.7-0.5,0.6c-0.1-0.3-1-0.3-1.3-0.3
			c-0.6,0-0.9-0.2-1.4,0c-0.7,0.3-0.6,1.1-0.4,1.4c0.2,0.4,0.3,0.4,0.5,0.7c0.3,0.4,0.3,0.3,0.8,0.5c0,0.4,0,0.4,0.2,0.7
			c0.2,0.4,0,0.4,0.4,0.8c0.3,0.3,0.7,0.5,1,0.6c0.1,0,0.2,0.1,0.4,0.2c-0.2,0.2-0.6,0.3-0.8,0.3c0.3,0.1,0.6,0,0.8,0.1
			c-0.1,0.1-0.1,0.2-0.2,0.2c0.2,0.1,0.4,0.1,0.7,0.1c-0.1,0.2-0.4,0.2-0.5,0.3c0.3,0.2,0.9,0.3,1.2,0.2c0,0,0,0.1-0.1,0.1
			c0.3,0.1,0.5,0,0.7,0c-0.1,0-0.1,0.1-0.1,0.2c0.3,0.2,0.7,0,1-0.1c0,0.1,0,0.2,0,0.2c0.3,0,0.6-0.2,0.8-0.3c0,0.1,0,0.2,0,0.2
			c0.3-0.1,0.7-0.3,0.9-0.4c0,0.1,0,0.2,0,0.3c0.4-0.2,0.7-0.5,1.1-0.8c0.3,0,0.5,0.1,0.8,0.1c0.1-0.3,0.3-0.6,0.5-0.7
			c0-0.2,0-0.3-0.1-0.5c0.4,0.1,0.9,0.1,1.3,0c-0.1-0.2-0.1-0.3-0.2-0.5c0.3-0.1,0.8-0.1,0.6-0.5c0.2,0,0.5,0,0.7,0c0,0,0,0,0,0
			c0.3,0.1,0.7,0.3,0.9,0.5c0,0,0,0,0,0c0,0.4,0.3,0.7,0.4,1.1c0.1,0.3,0.8,1.6,0.4,1.6c0-0.1-0.4-0.5-0.4-0.6
			c-0.3,0.7-0.2,1.1-0.8,1.6c-0.1-0.3,0.1-0.7,0.2-1c-0.4,0.4-0.5,0.8-0.6,1.3c0,0.2-0.1,0.5,0.2,0.5c0.1,0,0.6-0.3,0.7-0.4
			c0,0.1-0.1,0.2-0.1,0.3c0.2-0.2,0.4-0.3,0.6-0.6c0.1-0.2,0-0.3,0.2-0.5c0,0.2,0.2,0.3,0.2,0.5c0.2-0.2,0.2-0.5,0.3-0.7
			c0.1-0.2,0.3-0.3,0.5-0.5c0,0.2,0,0.4,0,0.5c0.1,0,0.2-0.1,0.3-0.2c0.1,0.2,0.2,0.6,0.1,0.8c0.1-0.1,0.3-0.2,0.3-0.2
			c0.1-0.1,0.3-0.1,0.4-0.2c0,0.2,0,0.4,0,0.6c-0.2,0.3-0.3,0.6-0.6,1c0-0.1,0-0.3,0-0.4c-0.2,0-0.4,0.2-0.6,0.2
			c-0.1-0.2-0.2-0.4-0.3-0.6c-0.1,0.2-0.3,0.3-0.3,0.4c-0.1,0.2,0,0.5-0.1,0.7c-0.1,0.4-0.4,0.9-0.6,1.2c-0.1-0.4,0.1-0.9,0.2-1.2
			c-0.7,0.3-1.3,0.8-1.4,1.5c-0.1-0.2,0.3-0.6,0.2-0.8c-0.1,0.1-0.2,0.1-0.3,0.1c0-0.3,0-0.6,0-0.8c-0.5,0.3-0.2-0.3-0.2-0.5
			c-0.3-0.1-0.1-0.6-0.5-0.4c-0.1-0.5,0.1-1.1,0.3-1.6c0.2-0.4,0.2-0.5,0-0.9c-0.2,0.2-0.3,0.4-0.4,0.6c-0.3,0.4-0.5,0.6-0.6,1
			c-0.4-0.4,0.1-0.8,0.3-1.2c0.2-0.3,0.1-0.8,0.1-1.2c-0.3,0.3-0.5,0.6-0.8,0.8c-0.2,0.2-0.3,0.7-0.6,0.8c0,0,0-0.1,0-0.1
			c-0.2,0-0.4,0.7-0.5,0.9c0.3,0,0.6-0.1,0.8-0.1c-0.1,0.2-0.2,0.3-0.3,0.5c0.1,0.1,0.2,0.4,0.3,0.3c0,0.1,0,0.2,0,0.3
			c0,0.1,0.1,0.2,0.1,0.4c0.1,0,0.3-0.1,0.4-0.2c0,0.1,0,0.3,0,0.4c0.1,0.3,0.5,0.3,0.8,0.3c0,0.3-0.3,0.8-0.5,1.1
			c0.1,0,0.3,0.1,0.3,0.2c0,0,0.2,0.4,0.2,0.5c0.1-0.1,0.2-0.1,0.3-0.2c-0.1,0.3-0.3,0.5-0.3,0.8c0.3-0.1,0.4-0.3,0.7-0.4
			c0.2-0.1,0.4-0.1,0.5-0.3c0.1,0.3-0.3,0.5-0.3,0.8c0.1-0.1,0.3-0.1,0.5-0.1c-0.1,0.5-0.6,0.9-0.9,1.2c0-0.1,0.1-0.3,0.1-0.5
			c-0.3,0.1-0.5,0.3-0.8,0.4c0-0.2,0-0.4,0.1-0.6c-0.4,0.1-0.7,0.4-1,0.5c-0.3-0.4,0.1-0.5,0.3-0.7c0.2-0.2,0.2-0.4,0.2-0.6
			c-0.2-0.1-0.4,0-0.5,0.1c0-0.2,0.1-0.4,0.2-0.6c-0.1,0-0.2,0-0.2,0c0-0.3,0-0.6,0.2-0.9c-0.2,0-0.1-0.4-0.1-0.5
			c-0.1-0.1-0.3,0-0.5,0c0-0.2-0.3-0.2-0.4-0.3c0.1-0.4-0.1-0.3-0.2-0.6c-0.1,0.1-0.3,0.2-0.5,0.2c0-0.2,0.1-0.4,0.1-0.6
			c-0.2-0.1-0.3,0-0.5,0.1c0.1-0.5,0.5-0.9,0.4-1.4c-0.4,0.2-0.7,0.7-1,1c-0.1-0.3-0.1-0.6-0.3-0.8c-0.5,0.7,0.2,0.6-0.6,1.1
			c-0.6,0.4-1.4,0-1.9,0.5c0.4-0.1,1,0.2,1.5,0.1c-0.2,0.3-0.6,0.3-0.8,0.5c0.5,0.2,1.1,0.1,1.5-0.1c0.2-0.1-0.4,0.5-0.1,0.6
			c0,0.2-0.3,0.5-0.5,0.6c0.4,0.1,1.5-0.2,2.6-0.4c0.3-0.1-1.3,0.9-1.6,1.1c0.2-0.1,0.8-0.2,1.2-0.3c-0.3,0.1-0.7,0.4-0.9,0.5
			c-0.3,0.2-0.2,0-0.2,0.3c0.4,0.1,0.5,0,0.9-0.2c-0.2,0.3-0.2,0.7-0.6,0.8c0.3,0,0.7-0.2,1-0.2c-0.1,0.4-0.7,0.7-1,1
			c0.4,0,0.8-0.2,1.2-0.4c-0.1,0.2-0.3,0.5-0.4,0.7c0.3,0-0.2,0.1,0,0.1c0,0.2,0.7,0.1,1.1-0.2c0,0.3,0.2,0.4,0.2,0.7
			c0.3-0.2,0.2,0.1,0.5,0.1c0,0.1-0.1,0.2-0.1,0.3c0.2-0.1,0.6-0.1,0.5,0c0.2-0.3,0.6-0.5,0.9-0.6c-0.3,0.5-0.4,0.7-0.5,1.2
			c0.2-0.5,0.7-0.9,1.2-1.2c-0.2,0.3-0.4,0.6-0.5,1c0.4-0.5,1.1-0.4,1.4-1c0.3-0.5,0.8-0.9,1.1-1.4c0,0.3-0.1,0.5-0.1,0.8
			c0.2-0.2,0.5-0.4,0.7-0.6c0,0.3-0.1,1,0.1,1.3c0.2-0.3,0.3-0.6,0.4-0.9c0,0.1,0.3,0.1,0.4,0c0,0,0.1,0.1,0.1,0.1
			c0.2-0.2,0.7-1,0.7-1c0,0,0.1-0.1,0.1-0.1c0.1,0.1,0.1,0.3,0.2,0.4c0.2-0.2,0.3-0.5,0.3-0.8c0.1,0.2,0.3,0.3,0.4,0.5
			c-0.2-0.2-0.2-0.6-0.2-1c0.1-0.1,0.1-0.3,0.2-0.4c0.1,0,0.1,0,0.2,0c0-0.1,0.2-0.5,0.3-0.5c0.3-0.1,0.5-0.6,0.5-1
			c0.1,0.3,0.2,0.4,0.4,0.6c0.1-0.4,0-0.5,0.1-1c0.1-0.6,0.5-0.2,0.6-0.8c0,0-0.1-0.8-0.1-0.8c0-0.2,0.5,0.5,0.5,0.3
			c0,0-0.4-0.9-0.3-0.9c0-0.2,0-0.4,0-0.6c0.3,0,0.4-0.2,0.4-0.6c0,0.1,0.2,0.1,0.2,0.2c0.2-0.2,0.3-0.7,0.4-1
			c0.1,0.1,0.2,0.2,0.2,0.2c0.1-0.3,0.1-1,0.2-1c0.1-0.4,0-0.8-0.1-1.2c0.4,0.4,0.3-0.5,0.3-0.7c0.1,0.1,0.3,0,0.4,0
			c0-0.3-0.1-0.8-0.2-1.1c0.1,0.1,0.3,0.1,0.4,0.2c-0.1-0.2-0.1-0.5-0.1-0.8c0.1-0.1,0.2-0.2,0.2-0.4c0,0-0.2-0.5-0.2-0.8
			c0.1,0,0.2,0,0.2,0c0.2-0.4,0.1-0.8,0.1-1.3c0.7-0.1,0.4-1.1,0.1-1.6C34,34.7,34,33.7,32.9,33.5z M15.5,26.4
			C15.5,26.4,15.5,26.4,15.5,26.4C15.5,26.4,15.5,26.4,15.5,26.4C15.5,26.4,15.5,26.4,15.5,26.4z"/>
	</g>
	<g transform="matrix(10.8853,0,0,10.8853,150.356,188.451)">
		<path class="st1" d="M8.1,35.2c-1.2-1.3-2.8-1.7-3.9-1.7c0.1-0.1,0.1-0.2,0.2-0.3c0.1-0.2,0-0.2,0.1-0.3c0.1-0.3-0.2-0.3-0.3-0.3
			c-0.5,0.2-0.4-0.1-0.8-0.2l-0.1-0.2c-0.4-0.2-0.8,0.2-0.8,0.2l-0.2-0.2c-0.2,0-0.5-0.1-0.7,0.1c0,0.1-0.1,0.2-0.1,0.3
			c-0.3,0.2-0.2-0.1-0.5-0.1c-0.1,0-0.2,0.1-0.1,0.2c0.1,0.1,0,0.1-0.1,0.2c-0.3,0-0.9,0.3-1.1,0.1c-0.1-0.1-0.2-0.2-0.3-0.2
			c-0.2,0-0.2,0.2-0.3,0.3c-0.3-0.5-0.4,0-0.6,0.1c-0.4,0.3-0.5-0.3-0.6-0.6c-0.4,0-0.4,0-0.4,0.3c0,0.2,0.1,0.5,0.2,0.7
			c-0.2,0-0.5-0.1-0.6,0.1c-0.2-0.2-0.3-0.1-0.3,0.1c0,0.2,0.1,0.4,0.1,0.6c-0.2-0.1-0.4-0.1-0.6-0.2c0,0.2,0.2,0.5,0,0.6
			c0,0.2-0.1,0.3-0.2,0.5c-0.4-0.1,0,0.6,0,0.7c0,0.2-0.1,0.2-0.1,0.4c0,0.1,0.2,0.3,0.2,0.3c-0.4,0.2-0.2,0.5-0.7,0.3
			c-0.3-0.1-0.6-0.2-0.9-0.4c-0.2-0.1-0.3-0.5-0.4-0.6c-0.4-0.2-0.2,0.4-0.3,0.5c-0.7-0.3-0.9-1.1-1.5-1.5c0,0,0,0,0,0
			c0,0.4,0.3,0.5,0.4,0.8c0.2,0.4,0.3,0.9,0.8,1c0.5,0.2,0.7-0.2,1.1,0.2c0.1,0.1,0.2,0.2,0.3,0.3c0.2,0.1,0.4,0.1,0.5,0.2
			c0.3,0,0.5,0.1,0.8,0.3c0.3,0.2,0.4,0.2,0.8,0.4c0.2,0.1,1.1,0.3,1,0.6c-0.2,0-0.3,0.1-0.4,0.1c-0.2,0-0.4-0.1-0.5-0.1
			c-0.2-0.1-0.5-0.2-0.8-0.3c-0.3-0.1-0.5-0.3-0.8-0.4c-0.2-0.1-0.6-0.3-0.8-0.3c0,0.2,0.2,0.3,0.4,0.4c0.2,0.2,0.1,0.2,0.3,0.3
			c0.4,0.3,0.8,0.4,1.2,0.5c0.4,0.1,0.8,0.2,1.3,0.3c0.4,0.1,0.7,0,1.1,0.1c0.4,0.1,0.6,0,1,0c0.2,0,0.6,0,0.8,0
			c0.2,0,0.4,0.2,0.6,0.1c0.1,0,0.1-0.1,0.2-0.2c0-0.3-0.1-0.5-0.5-0.7c-0.3-0.1-0.9,0-1.1-0.3c0.1-0.1,0.2-0.1,0.3-0.2
			c0-0.1-0.2-0.3-0.1-0.4c0.1,0,0.2,0,0.3,0.1l0.1,0.3c0.2,0,0.2,0,0.4,0C1,38.3,0.7,38.2,0.6,38c-0.1-0.2-0.1-0.3-0.1-0.5
			c0.3,0,0.6-0.7,0.8-0.2c-0.2,0.2-0.5,0.3-0.5,0.5c0,0.1,0.3,0.3,0.3,0.3c0,0.1,0.1,0.2,0.2,0.3c0.2,0.2,0.2,0.2,0.3,0.1
			c0,0,0.2-0.2,0.2-0.2c0-0.2-0.2,0-0.3-0.1c-0.1-0.1-0.2-0.3-0.2-0.5c0.3,0,0.3,0.4,0.6,0.3c0.1,0.1,0.4,0.2,0.3,0.4
			c0,0.1-0.4,0.2-0.5,0.3c0.1,0.2,0.5,0.1,0.3,0.5c-0.1,0.1-0.2,0.2-0.1,0.4c0.1,0.1,0.2,0.1,0.3,0.2c0.2,0.1,0.7-0.2,0.9-0.2
			c0-0.2-0.1-0.5-0.3-0.7c-0.1-0.1-0.3-0.2-0.4-0.3c-0.2-0.2,0-0.1-0.1-0.3c-0.1-0.3-0.2-0.6-0.4-0.9c-0.3-0.3-0.4-0.1-0.4-0.6
			c0.4,0.1,0.6,0.1,1,0.4C3,37.4,4.2,38,5,38.6c-0.2-0.8-1.8-1.5-2.1-1.8c-0.5-0.3-1.1-0.5-1.6-0.9c0.2-0.2,0.4-0.1,0.2-0.4
			c-0.2-0.2-0.6-0.3-0.9-0.5c-0.9-0.5,0.2-0.4,0.5-0.8c0,0,0.1,0.1,0,0.1c0.1,0.1,0,0.3,0.2,0.4c0.1-0.1,0.2-0.1,0.2-0.2l0.2-0.1
			c-0.1-0.1-0.1-0.1,0-0.3l0.1-0.1c0.1-0.1,0.4-0.1,0.3,0.1c0,0,0.1,0.1,0.1,0.1c0.1-0.1,0.1,0.1,0,0.2c-0.1,0.1-0.1,0.3,0.1,0.3
			c0.1-0.2,0.5,0,0.4,0.1c-0.1,0.1,0.1,0.2,0.2,0.3c0.2,0.1,0.4-0.1,0.4-0.3c-0.3,0-0.1-0.5,0-0.5c2.5,0,4,2.2,4,2.2s1.3,2.1,0-0.3
			c-1-1.9-3.1-2.2-4-2.2c0-0.1,0.2-0.2,0.1-0.3c2.5-0.2,4.6,1.7,4.6,1.7S10.2,37.6,8.1,35.2z"/>
	</g>
	<g transform="matrix(10.8853,0,0,10.8853,150.356,188.451)">
		<path class="st1" d="M19.3,49.6C19.3,49.6,19.3,49.6,19.3,49.6C19.2,49.7,19.2,49.7,19.3,49.6z"/>
	</g>
	<g transform="matrix(10.8853,0,0,10.8853,150.356,188.451)">
		<path class="st1" d="M-2.9,32.1c-0.2-0.2-0.4-0.2-0.7-0.1c-0.4,0.2-0.3,0.5-0.5,0.8c-0.3,0.4-1.1,0.6-1.5,0.2
			c-0.3-0.3-0.1-0.4-0.6-0.5c-0.4,0-0.8,0-1.2,0c-0.3,0-0.6-0.1-0.9-0.2c-0.3-0.1-0.6-0.1-0.9-0.1c-0.6-1.6,1.9-2.1,3-2.4
			c0.7-0.2,1.7-0.7,2.1,0.2c0.2,0.4,0.1,0.9,0.4,1.3c0.2,0.2,0.6,0.3,0.7,0.6C-2.8,32-2.8,32.1-2.9,32.1"/>
	</g>
	<g transform="matrix(10.8853,0,0,10.8853,150.356,188.451)">
		<path class="st1" d="M-7.4,34c0.6-0.3,1,0.2,1.5,0.4c0.3-0.1,1.1-0.3,1.3,0.1c-0.2,0.2-0.6,0.1-0.9,0.2C-5.8,34.8-6,35-6.3,34.9
			c-0.1,0-0.2-0.2-0.2-0.2c-0.1-0.1-0.2-0.2-0.4-0.2C-7,34.3-7.5,34.2-7.4,34"/>
	</g>
	<g transform="matrix(10.8853,0,0,10.8853,150.356,188.451)">
		<path class="st0" d="M-8.6,31.3c0.1-0.2-0.4,0.6-0.1,0.6C-8.7,32-8.6,32-8.5,32c0.1-0.1,0.1-0.4,0.3-0.3l0.1,0.3
			c0.3,0.1,0.5-0.6,0.7-0.1c0.1-0.4,0.7-0.1,0.6-0.6c0.3-0.2,0.7-0.1,1,0c0,0.1,0.1,0.2,0.2,0.3c0.1,0,0.3,0.1,0.3-0.1
			c0-0.2-0.3-0.3-0.4-0.4c0.2-0.3,0.6,0,0.7-0.4c-0.4,0-0.1-0.8-0.6-0.5c-0.2,0.1-0.5-0.4-0.5,0l-1,0.3c0.2,0-0.6,0.1-0.9,0.2
			C-8.2,30.8-8.6,31.3-8.6,31.3z"/>
	</g>
	<g transform="matrix(10.8853,0,0,10.8853,150.356,188.451)">
		<path class="st0" d="M-1.7,37c-0.1-0.2-0.4-0.4-0.4-0.1c0,0.2,0.2,0.2,0.4,0.2c0.4,0,0.6,0,1,0.1c0-0.1,0.1-0.1,0.1-0.2
			c0.2-0.1,0.6,0.1,0.8,0c0.2-0.1-0.1-0.4,0-0.6c0.2,0.1,1.8,0.6,1.2,0c-0.1-0.1-0.3-0.2-0.3-0.3C1,36.2,1,36.1,0.9,36
			c-0.1-0.1-0.4-0.1-0.5-0.2c-0.1-0.1-0.2-0.2-0.4-0.3c0.3-0.3-0.2-0.5-0.2-0.2c-0.4-0.2,0-0.5,0.1-0.7c-0.1-0.2-0.3-0.3-0.5-0.4
			c-0.1,0.2,0.1,0.4,0.1,0.6c-0.1-0.1-0.3-0.2-0.4-0.3c-0.1-0.1,0-0.3-0.2-0.2c-0.5,0.1,0.2,0.5,0.2,0.6c-0.2,0.2-0.5,0-0.7-0.1
			c-0.2-0.1-0.4-0.4-0.5-0.4c-0.1,0.2-0.2,0.3-0.1,0.5c0.2,0.4,0.6,0.2,0.8,0.3c0.1,0.1,0.1,0.2,0.3,0.2c0,0,0.4-0.2,0.4-0.2
			c0.1,0.2,0.5,0.3,0.3,0.6c-0.3-0.3-0.7-0.1-0.2,0.2c0.2,0.1,0.8-0.1,0.9,0.3c-0.2,0.1-0.3,0.1-0.5,0.2c0,0,0,0,0,0
			c-0.2,0.3-0.4-0.2-0.6-0.3c-0.1-0.1-0.2-0.1-0.3-0.1c-0.1,0-0.1-0.1-0.1-0.2c-0.2-0.1-0.3-0.2-0.5-0.2c0-0.1,0-0.2-0.2-0.2
			C-2,35.8-1.6,35.9-1.3,36c0,0.3,0.2,0.3,0.4,0.5c0.1,0.1,0.4,0.3,0.4,0.4c-0.3,0.1-0.7-0.3-0.9,0.1c-0.2-0.1,0-0.2,0-0.4
			c-0.1-0.2-0.2-0.3-0.4-0.3c0,0.2,0.2,0.3,0.1,0.6C-1.8,36.8-1.6,37-1.7,37L-1.7,37z"/>
	</g>
	<g transform="matrix(10.8853,0,0,10.8853,150.356,188.451)">
		<path class="st1" d="M-7.7,35.2C-7.7,35.2-7.7,35.3-7.7,35.2C-7.7,35.3-7.7,35.2-7.7,35.2L-7.7,35.2z"/>
	</g>
	<g transform="matrix(10.8853,0,0,10.8853,150.356,188.451)">
		<path class="st1" d="M0.9,21.5c0.3,0.3,0.2,0.7,0.2,1.1c0,0.2-0.3,0.6-0.2,0.8c0.2-0.2,0.3-0.5,0.4-0.7c0.2-0.2,0.3-0.5,0.4-0.8
			c0-0.2,0.1-0.6-0.2-0.6C1.3,21.1,1,21.3,0.9,21.5"/>
	</g>
	<g transform="matrix(10.8853,0,0,10.8853,150.356,188.451)">
		<path class="st0" d="M12.2,26.4c-0.3-0.2-0.9-0.2-1.1,0.1c0.1,0,0.2,0.1,0.3,0.1c-0.5,0-1-0.1-1.4,0c0.3,0.3,0.8,0.4,1.1,0.7
			c-0.7,0.1-1,0.4-1.6,0.7c0.1,0.1,0.1,0.2,0.2,0.2c-0.1,0-0.2,0.1-0.3,0c0,0.1,0,0.1,0,0.1c-0.1,0.2-0.1,0.4,0,0.5
			c-0.1,0-0.1,0-0.1,0.1c0.2,0.5-0.4,0.4-0.7,0.4c0.2,0.2,1,0.4,1.2,0.4c0.3,0,0.6-0.3,0.3-0.6c0.3,0,0.7,0.1,1,0
			c-0.2-0.3-0.5-0.4-0.7-0.6c0.3,0,0.8,0.3,1.2,0.3c0.5,0,1-0.1,1.5,0c-0.2-0.2-0.4-0.3-0.7-0.4c0.2,0.1,0.3,0,0.5,0.1
			c-0.2-0.2-0.3-0.4-0.5-0.6c0.7-0.2,1.4-0.2,2.1-0.2c-0.1-0.1-0.3-0.2-0.4-0.2c0.5,0,0.9-0.1,1.4,0.1c-0.1-0.2-0.3-0.3-0.5-0.5
			c0,0,0.1,0,0.1-0.1C14.3,26.3,12.9,26.6,12.2,26.4z"/>
	</g>
	<g transform="matrix(10.8853,0,0,10.8853,150.356,188.451)">
		<path class="st0" d="M17.5,28.8c0.2,0.5,0.4,0.5,0.4,1.1c0,0-0.1,0-0.1,0c0.1,0.1,0,0.3,0.1,0.4c-0.6-0.2-0.2,0.8-0.1,1
			c-0.2,0-0.3,0-0.4,0.1c0.2,0.2,0.2,0.5,0.4,0.7c0.3,0.3,1.2,0.6,1.6,0.6c0.6,0,0.5-0.3-0.3-0.7c0.4,0.1,0.7,0.1,1-0.1
			c-0.3,0-0.5,0-0.7-0.2c0.2,0,0.3,0,0.5,0c-0.2-0.2-0.4-0.2-0.7-0.3c0.2,0,0.5,0,0.8,0c-0.5-0.1-1.1-0.4-1.4-0.8
			c0.2,0.1,0.5,0.2,0.7,0.2c-0.1-0.2-0.3-0.3-0.4-0.5c0.1,0,0.3-0.1,0.5,0c-0.1-0.3-0.3-0.4-0.3-0.7c0.2,0.1,0.5,0.1,0.8,0.1
			c-0.2-0.1-0.4-0.3-0.6-0.4c0.4-0.1,1,0.2,1.3-0.2c-0.3,0-0.6-0.1-0.8-0.2c0-0.1,0,0,0-0.1c-0.3-0.1-0.5,0-0.8-0.2
			c0,0,0.1,0,0.1-0.1c-0.5-0.2-1.1-0.2-1.7-0.2c0.1,0,0.1,0.1,0.2,0.1c-0.3-0.1-0.7-0.2-1.1-0.2c0.1,0.1,0.5,0.3,0.7,0.5L17.5,28.8z
			"/>
	</g>
	<g transform="matrix(10.8853,0,0,10.8853,150.356,188.451)">
		<path class="st0" d="M15.2,40c0.1,0.2,0,0.6,0,0.9c0.1-0.1,0.2-0.3,0.3-0.4c0.1,0.2,0.1,0.4,0,0.6c0-0.1,0.1-0.1,0.1-0.2
			c0.1,0.4-0.2,0.9-0.2,1.3c0.3-0.2,0.3-0.7,0.5-1c0.1,0.2,0.1,0.4,0.1,0.6c0.1-0.3,0-0.6,0.1-0.8c0,0.1,0.1,0.2,0.2,0.3
			c0-0.1,0.1-0.3,0.1-0.4c0.2,0.3,0.4,0.4,0.4,0.8c0,0,0,0,0.1,0c0.2,0.3,0.3,0.7,0.5,1c0.1-0.3,0-0.6-0.1-0.9
			c-0.1-0.4-0.3-0.8-0.4-1.1c0.2,0.1,0.3,0.1,0.5,0.2c0-0.2-0.1-0.4-0.1-0.6c0.4,0.3,0.8,0.5,1.3,0.6c-0.2-0.6-1-0.3-1.2-1
			c0.5,0,0.9,0,1.4,0.1c-0.2-0.2-0.5-0.4-0.8-0.5c0-0.1-0.1-0.3-0.1-0.4c0,0,0.1,0,0.1-0.1c0,0-0.1-0.2-0.2-0.2
			c0.3-0.2,0.9,0.1,1.3,0.1c-0.2-0.2-0.4-0.4-0.6-0.6C18.5,38,18.8,38,19,38c-0.1-0.6-0.8-0.9-1.2-1.1c0.1,0.1,0,0.2,0.1,0.3
			c-0.1,0-0.2,0-0.2,0c0,0.1,0,0.1,0.1,0.2c-0.2,0.2-0.4,0.1-0.6,0.1c0.1,0.1,0.3,0.2,0.4,0.3c-0.2,0.3-0.7,0.4-0.9,0.7
			c0.1,0,0.1,0.2,0.2,0.2c-0.1,0.1-0.2,0.2-0.2,0.3c-0.1,0.1-0.1,0.1-0.1,0.2c-0.4,0-0.9,0.1-1.3,0.2C15,39.7,15.1,39.9,15.2,40"/>
	</g>
	<g transform="matrix(10.8853,0,0,10.8853,150.356,188.451)">
		<path class="st1" d="M8.1,11.9c0-0.2,0.1-0.4,0.2-0.3c0-0.2-0.2-0.4-0.3-0.6c0.1,0,0.2-0.1,0.2-0.2c0.1,0,0.2,0,0.3,0.2
			c0.2,0,0.5-0.7,0.6-1c0.1-0.4-0.2-0.6-0.2-1C9,9,9,9,9.1,9C8.9,8.5,9.1,8.1,9,7.6C8.9,7.2,8.5,6.9,8.6,6.4c0-0.3,0.2-0.5,0.2-0.8
			c0-0.2-0.1-0.4-0.2-0.6C8.4,4.5,8.5,3.9,8.2,3.3c0,0-0.3-0.8-0.4-1.2c-0.1-0.5-0.3-1-0.3-1.4C7.4,0.9,7.3,1,7.2,1.2
			C7.1,1,7.2,0.8,7.1,0.6C7,0.7,6.8,0.4,6.8,0.1c0,0-0.2-0.2-0.3-0.2c0,0.1,0.1,0.4,0,0.5c0.1,0.1,0,0.2,0.1,0.3
			C6.2,0.7,6.4,1.3,6.3,1.5c0,0.1-0.1,0.3-0.1,0.4c0,0.2,0.1,0.4,0.1,0.7c0,0,0,0-0.1,0C6.2,2.9,6.2,3,5.9,3.3C6,3.4,6.1,3.6,6,3.6
			C6,3.8,6,4.1,5.8,4.1c0,0.2,0.2,1-0.2,0.9c0.1,0.4,0.3,0.6,0.3,1C5.8,6,5.7,6,5.6,5.9c0.1,0.2,0.2,0.5-0.1,0.5
			C5.4,6.7,5.8,6.9,5.9,7.2c0.1,0.2,0.1,0.3-0.1,0.6c0,0-0.1,0-0.2-0.1c0,0.2,0.1,0.4,0.1,0.5c0,0.1-0.1,0.2-0.1,0.3
			C5.7,8.8,6,9,6.2,9.3C6.1,9.6,6.3,9.7,6.3,10c0,0.2-0.2,0.3,0,0.6c0,0-0.1,0-0.2,0c0.3,0.2,0.5,0.8,0,0.9c0.1,0.2,0.3,0.4,0.1,0.5
			c0.2,0.4,0,0.8,0.2,1.2C6.5,13,6.6,13,6.7,12.9C7.1,12.5,7.6,12.2,8.1,11.9z"/>
	</g>
	<g transform="matrix(10.8853,0,0,10.8853,150.356,188.451)">
		<path class="st1" d="M12.9,12.7C12.9,12.7,12.9,12.7,12.9,12.7C12.9,12.7,12.9,12.7,12.9,12.7z"/>
	</g>
	<g transform="matrix(10.8853,0,0,10.8853,150.356,188.451)">
		<path class="st1" d="M9.3,11.2c0.2-0.6,0.7-1,0.5-1.7C9.7,9.6,9.7,9.8,9.6,9.9C9.5,9.5,9.7,9,9.7,8.7c0-0.4-0.2-0.7-0.2-1.1
			c0.2-0.3-0.1-0.7-0.1-1C9.3,6,9.1,5.6,9,5.1c0-0.5-0.3-0.8-0.3-1.2c0-0.2,0-0.4-0.1-0.6C8.5,3,8.5,2.9,8.5,2.6
			C8.9,2.8,8.8,3.2,9,3.5C9,3.6,9.2,3.7,9.3,3.9c0.1,0.1,0,0.3,0,0.5c0,0.1,0.2,0.3,0.2,0.4c0,0.2-0.1,0.4-0.1,0.6
			c0,0.1,0.1,0.3,0.1,0.4c0,0.1,0,0.4,0.1,0.5c0.1,0.2,0.6,0.4,0.9,0.6c-0.2,0.3-0.5,1.1,0,1.3c-0.1,0.4,0.1,0.4,0.2,0.8
			c0.2,0.4-0.2,0.5,0,0.8c0.1-0.2,0.3-0.3,0.4-0.5c0.1-0.2,0.1-0.5,0.2-0.7c0.1,0.1,0.1,0.3,0.2,0.4c0,0,0.1-0.1,0.1-0.1
			c0.1,0.3,0.3,0.4,0.4,0.7c0.1,0.2,0.3,0.4,0.2,0.6c0.7,0.1,0.2,0.5,0.4,0.8c-0.3,0.1-0.4,0-0.6-0.2c-0.3,0.3-0.5,0.4-0.7-0.1
			c-0.1,0.2-0.4,0.3-0.6,0.3c0,0,0-0.1,0-0.1c-0.2-0.1-0.6,0-0.7,0.3c0-0.1,0-0.3-0.1-0.3C9.8,10.9,9.7,11.2,9.3,11.2"/>
	</g>
	<g transform="matrix(10.8853,0,0,10.8853,150.356,188.451)">
		<path class="st0" d="M32.2,38.3c-0.1-0.3-0.3-0.4-0.5-0.6c-0.2,0.3-0.4,0-0.6,0.1c0.1,0.3,0,0.8,0.2,1c-0.2,0.1-0.3,0.1-0.5,0.3
			c0,0.2,0,0.4,0,0.5c-0.1,0-0.2,0.1-0.3,0.1c0.1,0.3,0.4,0.4,0.7,0.5c-0.2,0.1-0.5,0.1-0.7,0.3c0,0,0,0.1,0.1,0.1
			c-0.3,0.1-0.3,0.6-0.6,0.6c0.1,0.3,0.2,1-0.3,1.1c0.1,1-0.4,0.3-0.8,0.5c0.1,0.3,1.1,0.8,0.4,1.2c0.2,0.2,0.2,0.5,0.1,0.8
			c-0.5,0.2-0.9-0.2-1.3,0c0,0.5,0.6,1.3,0.9,1.3c0.3,0,0.2-0.2,0.4-0.4c0.3-0.2,0.4-0.4,0.6,0.1c-0.2,0.2-0.4,0.5-0.2,0.7
			c0.1-0.2,0.3-0.6,0.5-0.8c0.2-0.2,0.3-0.1,0.4-0.2c0.2-0.2,0.3-0.9,0.4-1.3c0.2-0.8,0.7-1.7,0.6-2.5c0.2,0.1,0.3,0.3,0.5,0.4
			c-0.1-0.5-0.1-0.8-0.3-1.2c0.3-0.1,0.7,0,0.9,0.2c0.1-0.9-0.6-0.6-0.6-1.5c0.3-0.2,0.5-0.1,0.7-0.1c-0.2-0.2-0.4-0.4-0.5-0.6
			c0.1,0,0.2-0.1,0.3-0.1c0,0,0-0.1,0-0.1C32.5,38.6,32.3,38.6,32.2,38.3"/>
	</g>
	<g transform="matrix(10.8853,0,0,10.8853,150.356,188.451)">
		<path class="st0" d="M23.3,29c-0.2-0.1-0.4-0.2-0.6-0.1c0.1,0.1,0.1,0.3,0.2,0.4c-0.2,0-0.4,0-0.7-0.1c0.2,0.1,0.4,0.3,0.5,0.6
			c-0.2,0-0.4,0-0.6,0c0.1,0.1,0.3,0.3,0.4,0.4c-0.1,0-0.3,0-0.5,0c0,0.3,0.4,0.6,0.6,0.7c-0.2,0-0.4-0.1-0.6-0.2
			c0.1,0.2,0.2,0.4,0.1,0.6c-0.1-0.1-0.3-0.1-0.4-0.2c0,0.3,0.1,0.6,0,0.8c-0.1-0.1-0.2-0.1-0.4-0.2c0,0.1,0,0.3,0.1,0.4
			c-0.1,0-0.2,0-0.3,0c0,0.2,0.3,0.4,0.4,0.6c-0.8-0.1-0.7,0.2-0.4,0.7c-0.1,0-0.2-0.1-0.2-0.1c0.5,1.3-0.8,1.8-0.6,2.2
			c0.2,0.4,1.2-0.9,1.7,0.3c0.2-0.3,0.1-0.8,0.2-1.1c0.2,0.1,0.3,0.2,0.5,0.3c0.1-0.3-0.1-0.6,0-1c0.1,0,0.2,0,0.3,0
			c0.1-0.4,0.1-0.7,0.2-1.1c0,0,0.1,0,0.1,0.1c0.1-0.3,0.1-0.6,0.5-0.6c0-0.1,0-0.4,0-0.4c0-0.1,0-0.2,0-0.2c0.1-0.1,0.2,0,0.2-0.1
			c0-0.1,0.2-0.1,0.3-0.3c0,0-0.1-0.4-0.1-0.5c0.9,0.3,0.3-0.4,0.3-0.7c0-0.3,0.2-0.3,0.5-0.4c-0.6-0.3,0.1-0.7,0.4-0.8
			c-0.4-0.1-0.4,0-0.8-0.1c0.6-0.3,0.5,0,1-0.4c-0.5-0.1-0.5-0.1-1.1-0.2c0.3-0.2,0.6-0.2,0.6-0.5c-0.2,0.1-0.5,0.2-0.7,0.3
			c0-0.1,0-0.3,0-0.5c-0.3,0.3-0.5,0.4-0.9,0.3c-0.1,0.3-0.2,0.5-0.3,0.8"/>
	</g>
	<g transform="matrix(10.8853,0,0,10.8853,150.356,188.451)">
		<path class="st1" d="M22.3,15.4c0.1-0.1,0.1-0.2,0.2-0.3c0-0.1,0.1-0.1,0.2-0.1c0.1-0.1,0.2-0.4,0.3-0.5c0.1-0.2,0.2-0.4,0.3-0.6
			c0.1-0.2,0.2-0.3,0.2-0.5c0-0.1,0-0.1,0.1-0.2c0,0,0,0,0-0.1c0-0.3,0.1-0.5,0.1-0.8c0.1-0.4,0-0.7,0-1.1c0-0.3,0.2-0.7,0.3-1
			c0-0.3-0.1-0.7,0-1c0-0.2,0.2-0.5,0.2-0.7c0.1-0.3,0-0.6,0.1-0.9c0.1-0.5,0.1-1.1,0.1-1.7c0-0.4-0.2-1.2-0.3-1.6
			c-0.1-0.3-0.5-1.2-0.2-1.5c-0.3-0.2-0.3-0.5-0.5-0.8C23.2,2,23,1.9,22.9,1.9c-0.1-0.1,0-0.3-0.1-0.5c-0.1-0.2-0.2-0.4-0.3-0.6
			c-0.1-0.2,0.1-0.3-0.1-0.5c-0.1-0.2-0.5-0.4-0.8-0.5c-0.1,0.1-0.1,0.3-0.1,0.5c-0.1-0.1-0.2-0.1-0.3-0.2c-0.3,0.1-0.6,0.4-0.8,0.6
			c-0.2,0.1-0.7,0.2-0.8,0.4V1c-0.2,0.5-0.7,1.1-0.9,1.7c-0.2,0.7-0.5,1.4-0.8,2c-0.1,0.2-0.1,0.5-0.2,0.7c-0.1,0.4-0.3,0.6-0.3,1
			c0,0-0.1,0-0.1,0c0,0.2,0,0.4,0.2,0.6c-0.1,0.2-0.2,0.4-0.2,0.6c0,0.3,0.3,0.6,0,0.9c-0.1,0-0.1,0-0.2,0C17.4,9,18,9.4,17.9,10
			c-0.1,0-0.2,0-0.3-0.1c0,0.4,0.3,0.7,0.2,1.2c-0.1,0-0.2,0-0.3-0.1c0.1,0.3,0.4,0.5,0.5,0.8c0.1,0.3,0.3,1,0.2,1.3
			c0.3,0.2,0.2,0.5,0.4,0.8c0.3,0.4,0.8,0.1,0.9,0.7c0.2,0.2,0.7,0.4,0.5,0.5c-0.1,0.1-0.6-0.3-0.7-0.2c0,0.1,0.2,0.3,0.2,0.4
			c-0.1,0.1-0.3,0.2-0.5,0.2c0.1,0.2,0.5,0.3,0.4,0.5c-0.1,0-0.9,0.1-1,0.1c0.1,0.1,0.9,0.5,0.9,0.7c-0.1,0-0.6,0-0.7,0
			c0.1,0.3,0.1,0.2,0.3,0.4c0.1,0.1,0.3,0,0.4,0.2c0,0.1,0.6,0.2,0.6,0.4c0,0.2-0.7,0.5-0.7,0.6c0,0.2,0.8-0.1,0.8,0
			c0,0.2-0.6,0.5-0.4,0.8c0.1,0.1,0.5,0.5,0.6,0.5c0.4,0-0.1-0.4-0.2-0.9c0-0.2,0.6,0,0.6-0.1c0-0.2-0.5-1-0.5-1.2
			c0-0.2,0.6,0.2,0.7,0c0-0.1-0.8-0.4-0.7-0.5c0-0.1,0.9-0.1,0.9-0.1c0-0.1-0.3-0.2-0.5-0.3c-0.2-0.1-0.6-0.2-0.6-0.3
			c0-0.1,0.4-0.1,0.6-0.2c0.2-0.1-0.6-0.1-0.6-0.1c0-0.1,1.1-0.2,1.2-0.3c0,0-1.1-0.1-1.1-0.1c0-0.1,0.7-0.2,0.7-0.3
			c0-0.1-0.9-0.6-0.9-0.7c0-0.1,1.5,0.2,1.5,0.2c0.2,0,0.4,0.1,0.5,0.3c-0.1,0.2-0.4,0.4-0.4,0.6C21.5,15.8,22.2,15.6,22.3,15.4z"/>
	</g>
	<g transform="matrix(10.8853,0,0,10.8853,150.356,188.451)">
		<path class="st1" d="M23.6,13C23.6,13,23.6,13,23.6,13C23.6,13,23.6,13,23.6,13L23.6,13z"/>
	</g>
	<g transform="matrix(10.8853,0,0,10.8853,150.356,188.451)">
		<path class="st1" d="M24.6,13c0.1-0.2,0.3-0.4,0.5-0.6c0.4-0.6,0.4-1,0.5-1.7c0-0.9,0-2-0.1-3C25.3,6.8,25,5.9,24.9,5
			c-0.1-0.7-0.1-1.9-0.6-2.4c-0.2,0.5,0.4,1.6,0.4,2.2c0,0.8,0,1.5,0,2.3c0.1,0.8,0.2,1.5,0,2.2c-0.2,0.8-0.4,1.4-0.4,2.2
			c0,0.3-0.2,0.6-0.2,0.8c-0.1,0.3,0,0.5,0,0.7c0,0.1,0,0.3-0.1,0.4c0,0,0,0,0,0.1c0.2-0.1,0.3-0.3,0.4-0.4
			C24.5,13.1,24.6,13,24.6,13z"/>
	</g>
	<g transform="matrix(10.8853,0,0,10.8853,150.356,188.451)">
		<path class="st0" d="M21.1,3.9c-0.2-0.2-0.4-0.2-0.6-0.3c-0.1,0.2-0.4,0.1-0.6,0.2C20,4,20.2,4.3,20.4,4.4
			c-0.1,0.1-0.3,0.2-0.4,0.3C20,4.8,20.1,4.9,20.1,5c-0.1,0-0.2,0.1-0.3,0.1c0.2,0.2,0.5,0.2,0.8,0.2c-0.2,0.1-0.5,0.2-0.6,0.3
			c0,0,0.1,0,0.1,0c-0.3,0.1-0.2,0.4-0.4,0.5c0.2,0.2,0.5,0.6,0.1,0.7c0.4,0.6-0.3,0.3-0.6,0.5c0.2,0.2,1.3,0.3,0.7,0.7
			c0.2,0.1,0.3,0.3,0.4,0.5c-0.4,0.2-0.9,0.1-1.2,0.3c0.1,0.3,0.9,0.7,1.3,0.6c0.3-0.1,0.1-0.2,0.3-0.3c0.2-0.2,0.3-0.4,0.6,0
			c-0.1,0.2-0.2,0.4,0,0.5c0.1-0.2,0.1-0.4,0.2-0.6c0.1-0.1,0.3-0.1,0.3-0.2c0.1-0.2,0-0.7,0-0.9c0-0.6,0.2-1.2-0.2-1.8
			c0.2,0,0.4,0.1,0.6,0.2c-0.2-0.3-0.4-0.5-0.7-0.7c0.3-0.1,0.7-0.1,1,0c-0.2-0.6-0.7-0.3-1-0.8c0.2-0.2,0.4-0.2,0.7-0.2
			c-0.2-0.1-0.5-0.2-0.7-0.3c0.1,0,0.2-0.1,0.3-0.1c0,0,0-0.1,0-0.1C21.5,4.1,21.3,4.1,21.1,3.9"/>
	</g>
	<g transform="matrix(10.8853,0,0,10.8853,150.356,188.451)">
		<path class="st1" d="M10,22.1c-0.2,0.1-0.5,0.5-0.5,0.8c0,0.2-0.1,0.5,0.1,0.6c0.1,0,0.1-0.1,0.2-0.2c-0.1-0.1-0.1-0.2-0.1-0.3
			c0-0.3,0.2-0.5,0.5-0.5c0.3,0,0.5,0.2,0.5,0.5c0,0.3-0.2,0.5-0.5,0.5c0,0-0.1,0-0.1,0c0,0.1,0,0.2-0.2,0.3c0.3,0,0.4,0.3,0.8,0.2
			c0.5-0.1,1-0.5,1-1C11.4,22.3,10.9,22,10,22.1z"/>
	</g>
</g>
<g>
</g>
<g>
</g>
<g>
</g>
<g>
</g>
<g>
</g>
<g>
</g>
</svg>
